<svg width="689" height="709" viewBox="0 0 689 709" fill="none" xmlns="http://www.w3.org/2000/svg">
<g clip-path="url(#clip0_917_89)">
<path d="M330.248 3.05469C336.795 2.21708 346.879 2.5641 353.935 2.61035V2.61133C430.039 3.68221 503.505 30.6675 562.209 79.1152C632.822 139.163 676.891 224.65 684.836 317.003L684.838 317.019C693.811 414.294 663.575 511.09 600.902 585.939L599.416 587.703L599.408 587.713C550.284 646.208 482.545 686.045 407.55 700.54C391.534 703.622 376.701 704.814 360.319 706.16C274.745 708.618 191.402 678.81 126.814 622.695L125.292 621.364L125.284 621.357C53.3628 558.637 9.41912 469.827 3.1875 374.602C-2.59444 281.493 28.2714 189.814 89.1895 119.16C150.913 48.3223 236.92 9.43647 330.102 3.06836L330.175 3.06348L330.248 3.05469Z" stroke="#65655F" stroke-width="5"/>
<path d="M165.607 542.751C165.144 520.383 165.562 497.397 165.576 474.956L165.596 345.948L165.536 272.101C165.516 247.362 164.284 224.298 169.428 199.938C176.621 166.56 192.167 135.553 214.609 109.821C250.48 69.0435 294.854 44.8544 349.427 41.4041L349.378 127.797C319.372 129.067 290.969 141.69 269.918 163.112C253.282 180.276 241.512 201.557 235.814 224.771C230.005 248.721 231.381 297.831 231.355 324.322C231.179 374.704 231.36 425.084 231.896 475.464C206.972 487.312 188.546 500.985 173.762 525.208C170.763 530.119 168.101 538.82 165.607 542.751Z" fill="#A4ACA1"/>
<path d="M380.054 130.621C417.993 138.63 448.596 151.993 476.376 180.357C497.525 201.944 511.381 230.011 517.902 259.421C522.611 280.664 521.092 303.516 520.976 325.267C521.007 350.187 520.811 375.114 520.388 400.029L518.441 607.753L518.196 609.468C516.935 609.419 463.487 572.331 455.27 567.2L455.325 347.337L455.349 285.242C455.349 275.13 455.386 265.001 455.288 254.909C454.89 214.505 435.407 176.388 405.765 149.49C397.94 142.386 388.884 136.43 380.054 130.621Z" fill="#DFA38B"/>
<path d="M231.896 475.464C233.327 505.363 243.033 528.337 265.484 548.555C322.06 599.517 442.062 614.415 514.969 610.802L516.408 610.729C507.089 615.768 483.148 622.748 472.469 625.393C400.021 643.365 315.897 646.836 243.794 625.859C217.732 618.278 186.56 603.669 173.712 578.889C168.293 568.437 164.523 554.58 165.607 542.751C168.101 538.82 170.763 530.119 173.762 525.208C188.546 500.985 206.972 487.313 231.896 475.464Z" fill="#8192AC"/>
<path d="M334.428 284.346C373.163 279.015 408.842 306.185 414.009 344.937C419.171 383.686 391.85 419.255 353.073 424.251C314.536 429.217 279.233 402.098 274.1 363.581C268.967 325.064 295.936 289.645 334.428 284.346Z" fill="#EBC284"/>
</g>
<defs>
<clipPath id="clip0_917_89">
<rect width="688.888" height="708.802" fill="white"/>
</clipPath>
</defs>
</svg>
